<?xml version="1.0" ?><svg id="Layer_1" style="enable-background:new 0 0 24 24;" version="1.1" viewBox="0 0 24 24" xml:space="preserve" xmlns="http://www.w3.org/2000/svg" xmlns:xlink="http://www.w3.org/1999/xlink"><path d="M9,12c0.343,0,0.602-0.164,0.792-0.283c0.067-0.043,0.18-0.113,0.208-0.118  c0.132,0.026,0.458,0.356,0.652,0.552c0.41,0.414,0.833,0.842,1.351,0.849c0,0,0,0,0,0c0.421,0,0.75-0.337,1.068-0.664  c0.103-0.106,0.266-0.273,0.321-0.333c0.477,0.259,0.573,0.818,0.651,1.567C14.104,14.139,14.193,15,15,15c1.14,0,2-1.505,2-3.5  C17,9.505,16.14,8,15,8c-0.037,0-0.073,0.004-0.108,0.012C14.41,8.118,13.251,8.358,12.5,8.455V7.949C13.916,7.709,15,6.483,15,5  c0-0.919-0.531-1.517-1-2.045c-0.213-0.24-0.415-0.467-0.577-0.723c-0.635-1.005-0.947-1.889-0.95-1.898  c-0.06-0.171-0.209-0.297-0.388-0.328c-0.181-0.029-0.361,0.039-0.475,0.18C11.343,0.52,9,3.487,9,5c0,1.483,1.084,2.71,2.5,2.949  v0.506c-0.751-0.097-1.91-0.337-2.392-0.444C9.073,8.004,9.037,8,9,8c-1.103,0-2,0.897-2,2S7.897,12,9,12z M19.5,19  c-0.827,0-1.5,0.673-1.5,1.5c0,0.176,0.036,0.343,0.092,0.5H16v-4.565c0-0.149-0.101-0.283-0.215-0.378  c-0.115-0.096-0.302-0.128-0.446-0.101C15.227,15.976,15.117,16,15,16c-0.984,0-1.589-0.558-1.851-1.707  c-0.031-0.135-0.116-0.252-0.235-0.321c-0.119-0.071-0.262-0.088-0.395-0.047C12.35,13.975,12.181,14,12.01,14  c-0.853-0.011-1.426-0.507-1.896-0.972c-0.131-0.129-0.324-0.177-0.5-0.122c-0.325,0.1-0.591,0.113-1.043,0.048  c-0.143-0.02-0.289,0.021-0.399,0.117C8.063,13.166,8,13.304,8,13.449V21H3.5C3.224,21,3,21.224,3,21.5V22c0,1.103,0.897,2,2,2h13  c1.103,0,2-0.897,2-2v-0.092c0.581-0.207,1-0.757,1-1.408C21,19.673,20.327,19,19.5,19z M19.5,21c-0.276,0-0.5-0.224-0.5-0.5  s0.224-0.5,0.5-0.5s0.5,0.224,0.5,0.5S19.776,21,19.5,21z" id="XMLID_74_" style="fill:#630000;"/><g/><g/><g/><g/><g/><g/><g/><g/><g/><g/><g/><g/><g/><g/><g/></svg>